<svg id="Layer_1" data-name="Layer 1" xmlns="http://www.w3.org/2000/svg" viewBox="0 0 512 512"><path d="M127.81,318.53a114.83,114.83,0,0,1,55.09,14.34c18.28,10.1,37.41,17.2,58.33,18.93,4.85.41,9.73.58,14.6.59,21.39.07,42.78,0,64.17.05,14.47.05,25,10.21,25.07,24s-10.34,24.28-24.77,24.34c-31.71.15-63.41.05-95.12.05-1.69,0-3.73-.56-5,.19-2,1.18-4.67,3.22-4.73,5s2.44,4.08,4.36,5.3c1.38.87,3.65.39,5.52.39,31.89,0,63.78.14,95.68-.13a33.82,33.82,0,0,0,12.9-3.24q70.21-30.9,140.29-62.1c3.57-1.58,7.27-3.28,11.08-3.84,11.86-1.76,22.16,5,25.61,16.26,3.4,11.08-1.27,22.34-12.18,27.89q-55.34,28.2-110.86,56c-17.92,8.94-35.64,18.67-54.35,25.59-41.11,15.2-82.67,14.29-123.78-1-26-9.68-51.85-19.6-77.81-29.32-2.88-1.08-4.61-2.15-4.59-5.83.16-37,.11-73.93.13-110.9A24.11,24.11,0,0,1,127.81,318.53Z"/><path d="M0,373.55q0-39.41,0-78.81c0-12.1,3.59-15.6,15.86-15.6q43.05,0,86.1,0c10.3,0,14.47,4.09,14.47,14.22q0,80.49,0,161c0,10.29-4,14.44-14.21,14.46q-43.9.09-87.79,0C3.86,468.79,0,464.84,0,454Q0,413.79,0,373.55Zm37.5-53.17a18,18,0,1,0,18.34-17.92A18.14,18.14,0,0,0,37.51,320.38Zm1,130.31c4.49,0,9-.05,13.47,0,3.68.05,6.52-1.29,6.57-5.22s-2.64-5.42-6.38-5.39c-6.37,0-12.73-.15-19.09.06-3.5.12-4.6-1.23-4.45-4.58.2-4.67,0-9.36,0-14,0-3.43-1.31-6-5.09-6.05-4.11-.12-5.51,2.52-5.52,6.19,0,7.49,0,15,0,22.46,0,4.38,2,6.61,6.46,6.56C29.19,450.65,33.87,450.69,38.55,450.69Z"/><path d="M347.53,262.54H263.92c0-4-.12-7.78,0-11.57.27-6.56-2.15-11.44-7.28-15.83-23.83-20.42-32.72-46.44-25.55-76.86,7.25-30.7,27.42-49.82,58-57,44.09-10.31,88,20.74,93.05,65.48,3.1,27.71-6.36,50.81-27.8,68.73-4.75,4-7.1,8.51-6.84,14.62C347.67,254.18,347.53,258.22,347.53,262.54ZM278.78,186.4c0,6.71-.06,12.45,0,18.18.05,4.16,1.88,6,6,6.12,2.48.08,5,0,7.45,0,8,0,8,0,5.62-7.45-.06-.22-.15-.43-.21-.64a9,9,0,0,1,3.68-9.8,8.49,8.49,0,0,1,10.08.62,8.92,8.92,0,0,1,2.35,10.18,29.83,29.83,0,0,0-1.27,3.11c-.6,2.26-.13,3.7,2.72,3.59,3.72-.15,7.44,0,11.17,0,4.9,0,6.45-1.59,6.5-6.46,0-1.36,0-2.71,0-4.06V186c2.73.95,4.65,1.8,6.67,2.28,1.8.42,3.81.93,5.53.54,4.78-1.07,7.2-5.87,5.69-10.54A8.54,8.54,0,0,0,340,172.76c-2.37.73-4.8,1.32-7.71,2.12,0-6.27,0-11.67,0-17.07,0-5.55-1.5-7.06-7-7.07-4.49,0-9,0-14.24,0,.78-2.48,1.71-4.4,1.92-6.4.27-2.55.66-5.46-.27-7.68-1.7-4-6.46-5.4-10.33-3.75a8.5,8.5,0,0,0-4.73,10.65c.73,2.36,1.32,4.76,2.1,7.62-5.41,0-9.91,0-14.4,0-5.35,0-6.75,1.43-6.77,6.84s0,11,0,17.15c-2.2-.58-3.9-1-5.55-1.47-1.07-.34-2-1.06-3.1-1.29a8.42,8.42,0,1,0,.85,16.38Z"/><path d="M322.26,303.74c-.68,1.67-1.27,3.24-1.94,4.78-2.72,6.2-8.53,10.28-14.79,10-6.84-.31-12-3.71-14.3-10.1-1.41-3.93-3.32-5.22-7.28-4.73a58.09,58.09,0,0,1-8.45.05c-5.93-.11-10.72-3.89-11.25-9.62-.47-5-.1-10.08-.1-15.3h83.68c-.38,5.92-.09,11.93-1.34,17.61-1,4.73-5.22,7.2-10.26,7.3C331.6,303.81,327,303.74,322.26,303.74Z"/><path d="M178.7,185.78c-4.85,0-9.7.06-14.55,0-6.34-.08-10.88-4.35-10.86-10.08s4.42-9.89,10.62-10q14.88-.21,29.76,0c6.44.08,10.75,4.4,10.64,10.24-.12,5.67-4.5,9.73-10.74,9.82C188.62,185.84,183.66,185.78,178.7,185.78Z"/><path d="M432.32,185.78c-4.85,0-9.7.07-14.54,0-6.2-.1-10.58-4.24-10.64-9.91s4.17-10,10.4-10.14q15-.22,30.09,0c6.19.1,10.56,4.47,10.53,10.07s-4.59,9.88-11,10H432.32Z"/><path d="M315.78,49.09c0,4.85.07,9.7,0,14.54-.11,6.37-4.4,10.81-10.19,10.72s-9.82-4.47-9.87-10.69q-.13-14.88,0-29.75c.06-6.09,4.45-10.61,10-10.61s9.84,4.49,10.06,10.58c0,.22,0,.45,0,.67Z"/><path d="M406,64.33c4.41.82,7.45,2.53,9.26,6a9.56,9.56,0,0,1-.69,10.27,32.64,32.64,0,0,1-4.07,4.5c-6.13,6.16-12.26,12.33-18.45,18.42-4.64,4.56-10.64,4.78-14.79.67s-3.91-10.22.61-14.78c6.92-7,13.78-14,20.89-20.76C400.77,66.8,403.58,65.76,406,64.33Z"/><path d="M206.38,65c1.18.63,3.92,1.41,5.74,3.14,7.44,7.08,14.66,14.38,21.83,21.73,4.28,4.39,4.17,10.51,0,14.54-3.93,3.83-10,3.69-14.28-.55-7.25-7.11-14.41-14.32-21.56-21.53a9.8,9.8,0,0,1-2.27-11.22C197.47,67.12,200.67,65.3,206.38,65Z"/></svg>