<svg id="Layer_1" data-name="Layer 1" xmlns="http://www.w3.org/2000/svg" viewBox="0 0 512 512"><path d="M94.68,212.87v-7.25q0-93.54,0-187.08c0-11.15,2.78-13.94,14-13.94H403.38c11.21,0,14,2.82,14,14q0,93.54,0,187.08v7.22Zm161.43-18.63c18.14,0,36.28.08,54.41,0,8.32-.05,12.42-4,11.73-11.61-2.77-30.65-18.41-62.85-64.37-64.1-33.27-.91-57.23,16.49-65.47,48.5a113,113,0,0,0-2.25,12.58c-1.5,10.56,2.06,14.62,12.82,14.65C220.69,194.28,238.4,194.25,256.11,194.24Zm-.23-161a37.78,37.78,0,1,0,38,37.72A37.67,37.67,0,0,0,255.88,33.29Z"/><path d="M256,289.31q-101.51,0-203,0a33.41,33.41,0,0,1-7.63-.51c-7-1.68-10.2-9.76-5.24-15C53.24,260,66.78,246.68,80.41,233.45c1.47-1.43,4.75-1.37,7.2-1.37Q225,232,362.34,232c20.92,0,41.84-.16,62.76.18a15.17,15.17,0,0,1,9.33,3.91c11.73,11.2,23,22.87,34.56,34.27,3.73,3.67,6.58,7.54,4.31,13s-7.18,6-12.33,6Q358.51,289.29,256,289.31Z"/><path d="M75.38,507.39q-31.06,0-62.12,0c-10.59,0-14.32-4.32-13-14.68C3,470.76,10.41,450.81,29.18,437.77c26.06-18.09,54.66-18.88,82.81-6.28,27.23,12.19,37.19,36.69,39.77,64.79.65,7-3.84,11.05-11.71,11.08C118.49,507.44,96.93,507.39,75.38,507.39Z"/><path d="M435.69,507.39c-20.91,0-41.83,0-62.75,0-9.93,0-13.42-4.09-12.37-14,2.16-20.39,8.75-39,24.88-52.4,24.31-20.23,52.4-21.65,80.94-12,27.3,9.22,40,31.22,44.55,58.41,2.94,17.78.6,20-17.62,20Z"/><path d="M255.44,507.39H194c-11.17,0-14.59-3.31-13.53-14.14,3.76-38.26,27.73-68.09,71.38-69.37,26.19-.77,49,6,65.12,28.2,9.24,12.77,13.75,27.35,14.76,43,.55,8.52-3,12.25-11.6,12.29C298.55,507.45,277,507.39,255.44,507.39Z"/><path d="M436.09,410.43c-23.62,0-42.94-19-42.74-41.93.19-22.71,19.4-41.48,42.59-41.62,23.43-.15,42.95,18.82,43,41.78S459.78,410.46,436.09,410.43Z"/><path d="M76,410.43c-23.67,0-42.91-18.73-42.85-41.77s19.58-41.93,43-41.78c23.21.14,42.39,18.9,42.59,41.62C118.93,391.44,99.6,410.4,76,410.43Z"/><path d="M255.89,410.42c-23.79-.07-42.61-18.67-42.46-42,.15-22.85,19.15-41.46,42.43-41.56,23.56-.1,42.75,18.67,42.78,41.85S279.72,410.48,255.89,410.42Z"/><path d="M301.86,175.16H210.33c2.5-22.3,20.2-37.33,44.31-37.91C280,136.65,298.12,151,301.86,175.16Z"/><path d="M255.92,89.92a18.91,18.91,0,1,1,19.22-19A19.12,19.12,0,0,1,255.92,89.92Z"/></svg>