<svg id="Layer_1" data-name="Layer 1" xmlns="http://www.w3.org/2000/svg" viewBox="0 0 512 512"><path d="M339.81,101.06c-.05-13-9.89-24.89-22.92-26-14.29-1.26-28.78-.29-43.06-.29-7.61,24-23.58,36.7-46.8,36.84q-45.57.29-91.15,0C114,111.39,97.43,98.94,90.65,78.3c-.4-1.19-.88-2.34-1.48-3.94-11.6,0-22.69,0-33.79,0-21.18,0-32.12,10.91-32.12,32.12q0,168.15,0,336.3c0,20.84,11,31.8,31.77,31.8q96.79,0,193.6,0l7.3,0c-6.63-10.46-5.39-23.65,3.75-33.29,1.29-1.36,2.61-2.75,3.93-4.16q-.54-1.2-1.05-2.46h-4.37c-16.58-.08-28.65-12.18-28.71-28.79,0-9.12,0-18.66,0-29.17.05-16.95,11.94-28.82,28.93-28.86h4.36q.38-.9.78-1.83c-1.22-1.22-2.47-2.49-3.72-3.77a27.57,27.57,0,0,1,.13-39.36c7.51-7.59,14.9-15,22-22a27.91,27.91,0,0,1,19.64-8.28,28.25,28.25,0,0,1,19.72,8.26c1.21,1.18,2.4,2.36,3.55,3.51l2-.84c0-1.52,0-3,0-4.55.07-10.48,4.95-19.15,12.71-24.07v-1.21a9.09,9.09,0,0,0,.35-1.79C339.89,201.64,340,151.35,339.81,101.06Zm-268,42.37q28,.15,55.93,0c5,0,7.27,2,7.25,7.13q-.15,28,0,55.93c0,5.39-2.36,7.53-7.61,7.5q-27.65-.15-55.3,0c-5.25,0-7.7-2.18-7.62-7.53.13-9.42,0-18.85,0-28.27,0-9,.11-18,0-27C64.35,146,66.35,143.39,71.79,143.43ZM64.44,249.56c0-5.33,2.34-7.66,7.56-7.64,18.43,0,36.86.07,55.29,0,5.64,0,7.84,2.54,7.7,8.09-.22,9.21-.06,18.43-.06,27.65s-.11,18.43,0,27.64c.09,5.09-2.24,7.26-7.18,7.25q-28-.06-55.92,0c-5.29,0-7.48-2.38-7.44-7.69Q64.64,277.21,64.44,249.56Zm62.49,161.78c-18.22-.15-36.44-.11-54.66,0-5.58,0-7.88-2.42-7.84-8q.22-27.33,0-54.66c0-5.62,2.14-7.94,7.81-7.89q27.64.24,55.29,0c5.36,0,7.57,2.21,7.46,7.54-.18,9.21,0,18.43,0,27.64,0,9-.19,18,.07,27C135.17,408.84,132.89,411.39,126.93,411.34Zm77.78-27c-.07,1-2.09,2.64-3.22,2.65-15.65.18-31.31.12-47.38.12V369h50.75C204.86,374.13,205,379.26,204.71,384.36Zm41.85-96.58H154.15V270.44h92.41ZM293,189.4H154.31V171.77H293Z"/><path d="M143.74,36.68C149,12.44,161.32.38,180.6,0c20.47-.39,32.64,10.92,39.18,36.7,3.84.21,7.81.18,11.71.71,15.1,2.07,25.28,14.28,24.54,29.19-.72,14.47-12.07,26.28-26.85,26.46q-47.46.59-94.94,0a27.67,27.67,0,0,1-27.08-26.32c-.73-14.88,9.45-27.19,24.45-29.31C135.52,36.9,139.51,36.93,143.74,36.68Zm38,14.26a13.5,13.5,0,0,0,13.6-14,13.78,13.78,0,0,0-13.54-13.6,14.18,14.18,0,0,0-14.09,13.86A13.89,13.89,0,0,0,181.76,50.94Z"/><path d="M123.65,154.91V202.5H76.06V154.91ZM96.7,178.7c-2.36-2.2-3.41-4-4.82-4.32-2.51-.65-5.9-1.51-7.72-.36-3.24,2-2.42,5.39.14,8,2.33,2.41,4.73,4.74,7.09,7.12,3.1,3.12,6.25,3.08,9.32,0,5.07-5,10.07-10.06,15.09-15.11,2.73-2.74,4-6.25.43-8.5-1.83-1.17-6.16-.62-8,.86C104.07,169.86,100.74,174.29,96.7,178.7Z"/><path d="M76.05,253.19h47.39v48H76.05Zm20.61,24c-2.13-1.92-3.37-3-4.58-4.13-2.67-2.47-5.55-3.18-8.28-.33s-1.84,5.7.7,8.26c2.22,2.23,4.47,4.42,6.65,6.67,3.27,3.37,6.47,3.34,9.76,0,4.86-4.9,9.76-9.78,14.65-14.65,2.68-2.66,4.13-5.65,1-8.69s-6.12-1.79-8.75,1C104.2,269.08,100.63,272.91,96.66,277.15Z"/><path d="M75.82,399.86v-47.8h47.64v47.8Zm21-23.79c-2.25-2.08-3.3-3.84-4.7-4.17-2.67-.62-6.29-1.56-8.17-.32-3.21,2.11-1.94,5.48.61,8,2.22,2.22,4.49,4.4,6.65,6.67,3.28,3.44,6.48,3.31,9.75,0q7.31-7.37,14.65-14.67c2.67-2.66,4.08-5.64,1-8.72s-6.12-1.89-8.72.93C104.2,367.8,100.62,371.84,96.8,376.07Z"/><path d="M370,512c-4.75,0-9.51,0-14.27,0-5.88,0-8.87-3.09-8.89-9,0-4.08,0-8.16,0-12.23,0-3.84-1.32-5.48-4.75-7q-7.89-3.51-15.65-7.3c-3.73-1.82-7-1.33-9.9,1.67s-6.08,6.17-9.19,9.18c-3.5,3.4-7.9,3.44-11.34,0q-11-10.85-21.81-21.81c-3.35-3.38-3.23-7,0-10.47,3.51-3.69,7-7.4,10.36-11.23a6.85,6.85,0,0,0,.7-8.13,64.21,64.21,0,0,1-6.64-16.18c-.67-2.92-3.53-4.71-7.07-4.79-4.42-.1-8.84,0-13.25-.06-5.71,0-8.79-3.08-8.81-8.85q0-14.52,0-29.05c0-5.9,3.08-8.91,9-8.92,4.07,0,8.15,0,12.23,0,5-.07,7-2,8.47-6.71a91.38,91.38,0,0,1,5.41-12.84c2.32-4.67,2.08-7.53-1.6-11.15-3-2.92-5.92-5.85-8.82-8.83-3.38-3.48-3.41-7.88,0-11.34Q285,306,296,295.13c3.42-3.39,7.84-3.32,11.33.08,3.17,3.08,6.27,6.22,9.37,9.38,2.63,2.68,5.92,3.44,9.25,1.6a61.06,61.06,0,0,1,15.93-6.54c3-.68,4.83-3.59,4.9-7.26.08-4.42,0-8.84,0-13.26,0-5.43,3.1-8.61,8.5-8.64q14.91-.09,29.81,0c5.39,0,8.49,3.22,8.53,8.62,0,4.25,0,8.5,0,12.74.06,4.8,2.09,6.84,6.6,8.3a99.68,99.68,0,0,1,13.08,5.49c4.46,2.19,7.21,2,10.78-1.38q5.12-4.78,10.37-9.43c3.42-3,6.65-3,9.93.26q11.07,10.91,22,22c3.29,3.34,3.22,7.76-.07,11.16-3.07,3.18-6.21,6.28-9.37,9.37-2.86,2.8-3.34,6.07-1.58,9.69,2.58,5.34,5.09,10.71,7.49,16.13,1.24,2.81,3.19,4.33,6.23,4.36,4.42,0,8.84,0,13.25,0,5.41,0,8.58,3.11,8.61,8.53q.07,14.91,0,29.81c0,5.4-3.23,8.45-8.66,8.48-4.25,0-8.5,0-12.74,0-3.75.05-5.41,1.43-6.92,4.89-2.23,5.12-4.56,10.21-7,15.21-2,3.94-1.6,7,1.39,10.15,3.32,3.52,6.59,7.1,9.77,10.74,2.81,3.22,2.8,6.51-.19,9.55q-11.07,11.28-22.34,22.35c-3.17,3.11-6.87,2.87-10.1-.2-3.7-3.51-7.45-6.95-11.21-10.39-2.12-1.93-5.59-2.08-8.61-.64-5.43,2.59-10.87,5.15-16.36,7.59a6.43,6.43,0,0,0-4.28,6.29c0,4.42,0,8.84,0,13.25,0,5.27-3.13,8.37-8.39,8.53H370Zm.3-60.51c34.08,0,60.19-26.14,60.2-60.21A59.8,59.8,0,0,0,370.14,331a60.25,60.25,0,0,0,.13,120.5Z"/><circle cx="370.24" cy="391.22" r="30.04"/></svg>